<?xml version="1.0" encoding="utf-8"?>
<!-- Generator: Adobe Illustrator 16.0.0, SVG Export Plug-In . SVG Version: 6.00 Build 0)  -->
<!DOCTYPE svg PUBLIC "-//W3C//DTD SVG 1.1//EN" "http://www.w3.org/Graphics/SVG/1.1/DTD/svg11.dtd">
<svg version="1.1" id="Vector_Color" xmlns="http://www.w3.org/2000/svg" xmlns:xlink="http://www.w3.org/1999/xlink" x="0px"
	 y="0px" width="100px" height="39.269px" viewBox="0 0 100 39.269" enable-background="new 0 0 100 39.269" xml:space="preserve">
<path fill="#3BA055" d="M0.575,21.965c0.153-0.958,0.841-2.247,0.841-2.247s0.861-1.482,2.312-1.482
	c1.451,0,2.523,0.867,3.101,1.483c0.578,0.619,1.398,2.142,1.941,2.719c0.546,0.579,1.406,1.682,2.522,1.682
	c1.114,0,1.812-0.88,1.996-1.524c0.183-0.643,0.014-1.858,0-2.877c-0.012-1.016,0.005-3.113,0.42-3.847
	c0.415-0.736,1.104-1.945,2.208-1.945c1.104,0,1.622,0.678,1.943,1.209s0.854,2.194,1.049,3.204
	c0.198,1.013,0.422,3.409,0.422,4.467s0.202,7.013,0,7.828c-0.205,0.814-0.606,1.944-1.261,1.944c-0.659,0-1.287-0.014-1.681-0.472
	c-0.395-0.461-1.273-3.042-1.526-3.416c-0.248-0.374-0.997-0.786-1.471-0.786c-0.472,0-1.346,0.282-1.786,0.684
	c-0.438,0.398-0.768,1.192-0.839,1.733c-0.073,0.539,0.058,2.562,0.052,3.363c-0.006,0.8-0.118,1.818-0.368,2.363
	s-0.665,1.07-0.998,1.26c-0.335,0.191-0.19,0.275-1.049,0.263c-0.862-0.013-1.143-0.105-1.84-0.789
	c-0.695-0.683-1.285-1.955-1.522-2.416c-0.237-0.462-1.435-2.718-1.787-3.467c-0.353-0.75-1.202-2.602-1.629-3.468
	c-0.428-0.867-0.948-2.491-1.052-3.048C0.472,23.826,0.425,22.925,0.575,21.965z"/>
<path fill="#E5A434" d="M24.548,12.851c0.021,0.365,0.111,2.77,0.058,3.31c-0.051,0.537-0.23,2.343-0.312,2.917
	c-0.08,0.573-0.322,2.58-0.308,2.962c0.014,0.383,0.166,1.231,0.263,1.508c0.098,0.277,0.312,0.741,0.567,1.069
	c0.221,0.286,0.724,0.591,1.1,0.585c0.377-0.004,0.823-0.193,1.064-0.416c0.241-0.224,0.808-0.862,0.948-1.188
	c0.143-0.325,0.525-1.322,0.633-1.731c0.107-0.41,0.353-1.455,0.479-2.051c0.129-0.594,0.278-2.333,0.424-2.796
	c0.144-0.462,0.491-1.577,0.594-1.98c0.102-0.404,0.427-2.22,0.269-2.874c-0.16-0.654-0.436-1.092-0.865-1.521
	c-0.43-0.429-1.136-0.835-2.017-0.835c-0.88,0-1.687,0.45-1.941,0.717c-0.254,0.27-0.499,0.644-0.644,0.926
	C24.719,11.734,24.523,12.485,24.548,12.851z"/>
<path fill="#CF4241" d="M43.5,7.491c1.078,0,1.957,0.668,2.416,1.155c0.316,0.333,0.861,1.146,0.896,1.603
	c0.027,0.396-0.194,1.219-0.447,1.524c-0.513,0.616-2.131,1.12-2.864,1.444c-0.905,0.401-2.806,1-3.703,1.417
	c-0.625,0.292-1.931,0.85-2.416,1.341c-0.262,0.264-0.709,0.707-0.709,1.312s0.441,0.797,0.682,0.972
	c0.296,0.213,1.032,0.377,1.393,0.421c0.699,0.084,2.112-0.236,2.811-0.157c0.353,0.038,1.069,0.242,1.34,0.472
	c0.35,0.296,0.894,0.866,0.894,1.602c0,0.736-0.465,1.206-0.786,1.473c-0.32,0.26-1.168,0.433-1.577,0.472
	c-0.617,0.061-1.85-0.219-2.471-0.237c-0.538-0.015-1.652-0.117-2.153,0.078c-0.347,0.138-0.948,0.473-1.129,0.973
	c-0.183,0.5,0.064,0.863,0.21,1.104c0.247,0.408,1.131,0.876,1.497,1.183c0.437,0.363,1.337,1.067,1.707,1.498
	c0.334,0.383,0.937,1.226,1.103,1.706c0.14,0.4,0.235,1.103,0.158,1.682s-0.506,1.116-0.813,1.366
	c-0.301,0.244-1.083,0.512-1.471,0.498c-0.546-0.017-1.541-0.558-2.023-0.813c-0.651-0.348-1.866-1.194-2.443-1.653
	c-0.498-0.397-1.463-1.24-1.865-1.734c-0.183-0.227-0.548-0.712-0.603-0.999c-0.098-0.492,0.188-1.504,0.314-1.99
	c0.24-0.928,0.99-2.701,1.314-3.604c0.366-1.021,1.093-3.067,1.445-4.094c0.262-0.766,0.675-2.346,1.024-3.078
	c0.311-0.653,1.113-1.867,1.55-2.442c0.404-0.536,1.288-1.55,1.787-1.998c0.528-0.473,1.696-1.297,2.312-1.655
	C41.469,7.986,42.422,7.491,43.5,7.491z"/>
<path fill="#E5A434" d="M25.901,2.998c0.024,0.399,0.292,1.195,0.552,1.499c0.297,0.347,0.952,0.894,1.601,0.894
	c0.651,0,1.565-0.401,1.945-0.762c0.266-0.253,0.562-0.974,0.603-1.339c0.049-0.433-0.114-1.337-0.34-1.708
	c-0.247-0.398-1.018-1.047-1.473-1.155c-0.4-0.096-1.243,0.132-1.611,0.315c-0.282,0.141-0.775,0.571-0.937,0.84
	C26.054,1.895,25.879,2.635,25.901,2.998z"/>
<path fill="#3D66AE" d="M58.183,13.219c0.843,0,1.797,0.957,2.182,1.498c0.313,0.437,0.59,1.535,0.578,2.075
	c-0.017,0.752-0.461,2.217-0.709,2.926c-0.216,0.618-0.83,1.783-1.103,2.378c-0.286,0.624-1.077,1.841-1.13,2.498
	c-0.053,0.656,0.237,1.288,0.421,1.682c0.222,0.478,0.93,1.277,1.235,1.707c0.328,0.462,1.072,1.34,1.286,1.863
	c0.206,0.513,0.464,1.687,0.368,2.182c-0.096,0.492-0.684,1.368-1.05,1.708c-0.342,0.314-1.004,0.825-1.654,0.84
	c-0.653,0.014-1.494-0.069-1.971-0.212c-0.67-0.196-1.911-0.876-2.496-1.26c-0.401-0.264-1.068-0.974-1.471-1.236
	c-0.338-0.22-1.042-0.697-1.446-0.709c-0.341-0.01-1.004,0.298-1.261,0.526c-0.22,0.194-0.473,0.749-0.579,1.023
	c-0.155,0.415-0.318,1.292-0.366,1.734c-0.044,0.417,0.056,1.265,0,1.682c-0.043,0.321-0.154,0.992-0.342,1.259
	c-0.17,0.243-0.363,0.742-1.153,0.742c-0.791,0-1.157-0.67-1.264-0.926c-0.248-0.586-0.271-1.89-0.342-2.521
	c-0.091-0.811-0.252-2.439-0.289-3.257c-0.031-0.723-0.078-2.172,0-2.89c0.076-0.689,0.407-2.042,0.606-2.706
	c0.244-0.826,0.823-2.46,1.208-3.231c0.396-0.802,1.396-2.294,1.916-3.02c0.427-0.599,1.33-1.759,1.837-2.286
	c0.522-0.54,1.665-1.527,2.274-1.971c0.555-0.404,1.721-1.143,2.35-1.417C56.385,13.655,57.344,13.219,58.183,13.219z
	 M53.589,19.942c-0.735,0-1.557,0.923-1.557,0.923s-1.476,1.723-1.759,2.145c-0.219,0.327-1.089,1.561-1.089,2.349
	s0.307,1.521,1.25,1.521c0.946,0,2.223-0.565,2.864-1.205c0.641-0.642,1.101-1.461,1.312-2.026c0.184-0.49,0.356-1.557,0.29-2.076
	C54.859,21.228,54.322,19.942,53.589,19.942z"/>
<path fill="#E4A630" d="M74.077,8.989c1.104,0,2.098,0.891,2.627,1.417c0.45,0.449,0.982,1.641,1.208,2.233
	c0.29,0.769,0.643,2.388,0.736,3.205c0.161,1.423,0.077,4.299,0,5.727c-0.049,0.911-0.262,2.723-0.395,3.626
	c-0.127,0.865-0.142,2.716-0.631,3.44c-0.248,0.367-0.474,0.946-1.497,0.946c-1.025,0-1.752-0.647-2.049-1.157
	c-0.451-0.772,0-2.681,0-3.571c0-0.781,0.322-2.416,0-3.127c-0.194-0.427-0.633-1.233-1.617-1.233c-1.929,0-3.137,0.705-3.618,0.989
	c-0.482,0.285-1.889,1.451-2.383,1.714c-0.401,0.213-1.184,0.527-1.734,0.527c-0.55,0-0.931-0.782-1.021-1.156
	c-0.127-0.506,0.334-1.529,0.497-2.023c0.283-0.858,1.009-2.518,1.393-3.337c0.429-0.912,1.294-2.744,1.867-3.573
	c0.542-0.787,1.821-2.239,2.547-2.862c0.457-0.394,1.475-1.059,2.024-1.315C72.506,9.24,72.974,8.989,74.077,8.989z M70.426,14.375
	c-0.429,0.243-1.199,0.955-1.367,1.417c-0.123,0.342-0.067,1.128,0.105,1.444c0.222,0.404,0.92,1.104,1.472,1.104
	c0.551,0,1.194-0.07,1.55-0.235c0.39-0.181,1.008-0.808,1.287-1.129c0.238-0.272,0.789-0.853,0.789-1.208s0.027-0.71-0.29-1.209
	c-0.314-0.5-1.05-0.709-1.671-0.709C71.678,13.849,70.88,14.115,70.426,14.375z"/>
<path fill="#53358F" d="M84.637,12.903c0.866,0,1.408,0.611,1.785,0.946c0.456,0.404,1.039,1.502,1.393,1.996
	c0.213,0.297,0.603,0.928,0.867,1.183c0.28,0.269,0.905,0.802,1.288,0.868c0.527,0.091,1.575-0.338,2.076-0.525
	c0.57-0.214,1.654-0.791,2.179-1.102c0.686-0.408,1.902-1.483,2.628-1.814c0.437-0.198,1.399-0.593,1.864-0.474
	c0.289,0.073,0.757,0.539,0.866,0.815c0.156,0.396,0.031,1.303-0.105,1.708c-0.163,0.479-0.819,1.279-1.13,1.681
	c-0.581,0.756-1.94,2.105-2.521,2.862c-0.34,0.444-0.984,1.365-1.236,1.864c-0.252,0.504-0.731,1.563-0.763,2.129
	c-0.025,0.548,0.337,1.615,0.526,2.127c0.156,0.422,0.658,1.182,0.813,1.604c0.192,0.521,0.562,1.6,0.527,2.153
	c-0.024,0.346-0.259,1.04-0.499,1.288c-0.203,0.207-0.785,0.443-1.077,0.445c-0.487,0.006-1.38-0.489-1.812-0.707
	c-0.403-0.206-1.143-0.729-1.524-0.973c-0.229-0.146-0.651-0.549-0.92-0.579c-0.493-0.052-1.415,0.474-1.864,0.684
	c-0.721,0.335-2.077,1.166-2.759,1.575c-0.547,0.331-1.618,1.021-2.153,1.367c-0.562,0.363-1.65,1.142-2.233,1.472
	c-0.716,0.403-2.146,1.429-2.969,1.417c-0.33-0.005-1.01-0.32-1.184-0.604c-0.164-0.271-0.089-0.96,0-1.262
	c0.161-0.528,0.873-1.419,1.237-1.84c0.517-0.598,1.771-1.575,2.336-2.127c0.626-0.609,1.881-1.834,2.418-2.522
	c0.538-0.691,1.491-2.177,1.864-2.968c0.214-0.45,0.587-1.395,0.63-1.892c0.041-0.478-0.154-1.434-0.288-1.892
	c-0.132-0.448-0.555-1.29-0.763-1.708c-0.224-0.449-0.772-1.299-0.972-1.761c-0.197-0.454-0.562-1.396-0.606-1.891
	c-0.043-0.521,0.125-1.579,0.292-2.076c0.103-0.307,0.382-0.921,0.629-1.129C83.711,13.049,83.769,12.903,84.637,12.903z"/>
</svg>
